PathFileType  4	(X/Y/Z) /workspace/opencap-mono/results/ba8f9f72-c3c0-4cdb-a5f6-69ba924cb011/d44734bd-61ee-49a5-b9fc-11194914285b/MarkerData/d44734bd-61ee-49a5-b9fc-11194914285b_5
DataRate	CameraRate	NumFrames	NumMarkers	Units	OrigDataRate	OrigDataStartFrame	OrigNumFrames
60.0	60.0	4	63	m	60.0	563	1499
Frame#	Time	sternum			r_shoulder			l_shoulder			r_elbow			l_elbow			r_melbow			l_melbow			r_wrist_radius			l_wrist_radius			r_wrist_ulna			l_wrist_ulna			C7			r_ASIS			l_ASIS			r_PSIS			l_PSIS			r_knee			l_knee			r_mknee			l_mknee			r_ankle			l_ankle			r_mankle			l_mankle			r_5meta			l_5meta			r_toe			l_toe			r_pinky			l_pinky			r_index			l_index			L4			T6			r_big_toe			l_big_toe			l_calc			r_calc			Nose			Neck			RShoulder			RElbow			RWrist			LShoulder			LElbow			LWrist			MidHip			RHip			RKnee			RAnkle			LHip			LKnee			LAnkle			REye			LEye			REar			LEar			LBigToe			LSmallToe			LHeel			RBigToe			RSmallToe			RHeel			
		X1	Y1	Z1	X2	Y2	Z2	X3	Y3	Z3	X4	Y4	Z4	X5	Y5	Z5	X6	Y6	Z6	X7	Y7	Z7	X8	Y8	Z8	X9	Y9	Z9	X10	Y10	Z10	X11	Y11	Z11	X12	Y12	Z12	X13	Y13	Z13	X14	Y14	Z14	X15	Y15	Z15	X16	Y16	Z16	X17	Y17	Z17	X18	Y18	Z18	X19	Y19	Z19	X20	Y20	Z20	X21	Y21	Z21	X22	Y22	Z22	X23	Y23	Z23	X24	Y24	Z24	X25	Y25	Z25	X26	Y26	Z26	X27	Y27	Z27	X28	Y28	Z28	X29	Y29	Z29	X30	Y30	Z30	X31	Y31	Z31	X32	Y32	Z32	X33	Y33	Z33	X34	Y34	Z34	X35	Y35	Z35	X36	Y36	Z36	X37	Y37	Z37	X38	Y38	Z38	X39	Y39	Z39	X40	Y40	Z40	X41	Y41	Z41	X42	Y42	Z42	X43	Y43	Z43	X44	Y44	Z44	X45	Y45	Z45	X46	Y46	Z46	X47	Y47	Z47	X48	Y48	Z48	X49	Y49	Z49	X50	Y50	Z50	X51	Y51	Z51	X52	Y52	Z52	X53	Y53	Z53	X54	Y54	Z54	X55	Y55	Z55	X56	Y56	Z56	X57	Y57	Z57	X58	Y58	Z58	X59	Y59	Z59	X60	Y60	Z60	X61	Y61	Z61	X62	Y62	Z62	X63	Y63	Z63	

563	9.3666667	3.9416631	1.5580056	9.8537152	3.7799915	1.5548256	9.9106325	4.0567329	1.5718156	9.7418444	3.8302769	1.2240856	9.9888968	4.1174329	1.2277156	9.7157858	3.8534789	1.2254956	9.9522488	4.0735558	1.2258856	9.7086544	4.0337132	1.1216356	10.1280393	4.1041873	1.0433156	9.9057789	4.0040635	1.0915256	10.1322315	4.1266969	1.0247656	9.8768626	3.8656711	1.5749156	9.7548132	3.9273131	1.1238056	10.0023021	4.0999898	1.1137056	9.8666046	3.8598265	1.1403756	9.8256501	3.9452797	1.1372956	9.7542219	4.0020040	0.6813556	10.0766650	4.0590690	0.6506556	9.7762557	4.0421263	0.6770956	9.9727339	3.9702187	0.6524356	9.8389499	4.0943545	0.2459356	10.1284896	3.9637125	0.2383256	9.6409381	4.1203283	0.2420556	10.0760538	3.9263557	0.2263756	9.6869295	4.1719096	0.1776056	10.1706344	4.0426598	0.1888956	9.6821323	4.2295921	0.1816256	10.1307448	4.0383976	0.1984356	9.7532435	4.0501318	1.0318856	10.1827214	4.1379413	0.9574056	9.9196649	4.0991026	1.0770956	10.1768469	4.1080565	0.9768356	9.9704315	3.9151398	1.2298656	9.7984368	3.8681674	1.4437856	9.7448221	4.2647626	0.1656056	10.1029768	4.0430415	0.1876956	9.7984408	3.9097179	0.1939256	9.6104749	4.0451906	0.2091556	10.0879983	3.9479831	1.7778156	9.8587366	3.9251485	1.4829456	9.8279410	3.7868529	1.4742256	9.9200772	3.8559489	1.2298356	9.9799368	4.0273724	1.0964556	10.1222579	4.0634442	1.4916656	9.7358048	4.0961179	1.2224156	9.7268548	4.1040246	1.0269656	9.8865594	3.9698032	1.0534256	9.8803976	3.8994652	1.0574556	9.9458653	4.0327827	0.6444356	10.0517371	4.1039437	0.2341756	10.0958104	4.0401278	1.0493956	9.8149348	4.0277782	0.6130556	9.7978333	3.9360575	0.2281056	9.6609892	3.8903028	1.7896856	9.8423771	3.9406599	1.7915356	9.7989833	3.8243333	1.7200956	9.8160616	3.9308553	1.7236956	9.7263550	4.0701662	0.1849156	9.8054841	4.0837906	0.1862156	9.7262923	3.9097179	0.1939256	9.6104749	4.2840999	0.1526656	10.1092576	4.2347815	0.1592356	10.1757660	4.0459529	0.1928556	10.0896999
564	9.3833333	3.9491686	1.5561956	9.8757629	3.7869005	1.5546256	9.9301732	4.0643510	1.5724356	9.7665374	3.8331443	1.2227256	10.0082079	4.1277954	1.2292756	9.7341674	3.8570980	1.2249256	9.9720538	4.0841627	1.2275256	9.7259914	4.0361963	1.1216256	10.1493338	4.1085730	1.0447156	9.9233485	4.0073171	1.0905656	10.1520869	4.1315256	1.0258656	9.8950911	3.8736720	1.5736456	9.7771471	3.9356636	1.1218156	10.0217094	4.1049782	1.1063156	9.8833077	3.8658896	1.1400656	9.8463189	3.9495384	1.1343656	9.7735308	4.0028146	0.6805156	10.0989671	4.0625276	0.6457356	9.7906787	4.0402001	0.6729656	9.9944218	3.9743252	0.6460256	9.8543260	4.1050500	0.2498556	10.1721614	3.9636177	0.2387056	9.6412360	4.1300161	0.2445256	10.1193550	3.9263974	0.2265756	9.6869820	4.1830606	0.1811856	10.2139449	4.0422671	0.1885456	9.6818388	4.2396057	0.1831256	10.1727084	4.0382363	0.1981556	9.7532345	4.0539653	1.0312156	10.2021850	4.1414986	0.9587156	9.9386798	4.1017732	1.0779156	10.1986151	4.1106027	0.9789756	9.9883019	3.9231762	1.2274256	9.8183046	3.8760602	1.4434656	9.7653291	4.2730432	0.1650756	10.1439006	4.0428608	0.1872956	9.7983786	3.9090415	0.1943456	9.6109318	4.0550046	0.2126356	10.1334659	3.9507506	1.7788956	9.8793031	3.9322296	1.4836056	9.8490294	3.7927187	1.4742156	9.9399148	3.8588902	1.2290656	9.9999885	4.0305918	1.0964156	10.1426599	4.0717357	1.4929856	9.7581307	4.1061914	1.2241556	9.7446492	4.1086447	1.0282956	9.9040286	3.9735622	1.0500156	9.8994294	3.9046231	1.0566956	9.9661563	4.0328304	0.6428556	10.0744448	4.1139446	0.2372756	10.1395996	4.0424922	1.0433456	9.8326983	4.0311104	0.6084456	9.8118884	3.9364563	0.2293556	9.6613407	3.8928616	1.7886256	9.8621843	3.9435258	1.7914756	9.8192205	3.8295239	1.7166056	9.8362354	3.9368804	1.7222256	9.7476020	4.0700635	0.1845156	9.8053258	4.0838401	0.1863056	9.7261389	3.9090415	0.1943456	9.6109318	4.2919575	0.1511756	10.1494324	4.2454790	0.1609056	10.2177065	4.0555724	0.1964356	10.1352533
565	9.4000000	3.9556157	1.5538456	9.8980452	3.7930120	1.5544756	9.9491765	4.0713817	1.5721856	9.7908573	3.8356545	1.2218656	10.0286875	4.1367453	1.2303156	9.7522655	3.8599840	1.2247956	9.9928632	4.0934827	1.2285756	9.7432248	4.0398399	1.1230456	10.1701985	4.1131213	1.0445756	9.9393388	4.0119632	1.0909856	10.1718192	4.1366105	1.0256456	9.9117290	3.8813122	1.5718556	9.7993789	3.9416902	1.1166156	10.0418648	4.1084173	1.0994956	9.9014400	3.8703429	1.1390856	9.8681681	3.9525199	1.1326456	9.7943957	4.0012361	0.6774156	10.1194600	4.0679666	0.6412656	9.8052087	4.0369922	0.6672656	10.0148832	3.9798433	0.6401056	9.8689701	4.1150720	0.2529356	10.2118118	3.9637527	0.2397156	9.6422478	4.1400714	0.2467856	10.1590761	3.9266018	0.2278956	9.6877504	4.1942609	0.1851856	10.2546413	4.0417010	0.1879856	9.6817514	4.2499886	0.1861056	10.2132884	4.0380678	0.1978456	9.7534539	4.0599728	1.0324756	10.2211509	4.1450904	0.9582656	9.9560116	4.1063605	1.0806956	10.2196330	4.1131743	0.9793956	10.0041539	3.9292675	1.2244856	9.8406638	3.8835780	1.4424956	9.7860254	4.2817580	0.1662056	10.1836807	4.0426047	0.1868456	9.7985019	3.9078778	0.1958656	9.6123862	4.0655125	0.2144056	10.1737070	3.9544997	1.7789556	9.8992792	3.9381960	1.4839656	9.8699291	3.7974179	1.4743256	9.9596277	3.8612519	1.2288956	10.0210940	4.0350349	1.0977956	10.1626617	4.0789609	1.4936156	9.7802352	4.1149105	1.2252456	9.7621541	4.1135663	1.0280756	9.9199283	3.9761244	1.0458756	9.9183775	3.9082133	1.0534256	9.9860472	4.0310002	0.6390856	10.0957141	4.1238403	0.2394256	10.1792132	4.0440356	1.0383256	9.8507079	4.0361348	0.6043756	9.8258168	3.9371320	0.2317356	9.6624944	3.8966708	1.7871556	9.8810849	3.9478178	1.7902256	9.8387656	3.8353775	1.7133856	9.8556260	3.9439760	1.7195056	9.7685647	4.0698593	0.1839956	9.8053851	4.0838788	0.1861756	9.7262452	3.9078778	0.1958656	9.6123862	4.2998649	0.1509456	10.1883174	4.2555391	0.1631456	10.2577719	4.0662048	0.1982256	10.1754641
566	9.4166667	3.9618375	1.5510656	9.9202666	3.7996059	1.5552556	9.9692985	4.0776708	1.5712856	9.8142356	3.8364663	1.2215256	10.0487393	4.1437859	1.2309556	9.7712165	3.8610326	1.2248056	10.0130695	4.1011734	1.2290156	9.7604268	4.0419681	1.1248956	10.1901249	4.1134215	1.0445956	9.9554005	4.0146856	1.0923156	10.1912282	4.1385839	1.0259156	9.9292661	3.8892214	1.5706456	9.8217913	3.9475475	1.1104256	10.0633535	4.1119708	1.0941456	9.9199898	3.8737692	1.1358656	9.8915575	3.9542324	1.1301256	9.8163018	3.9995532	0.6721656	10.1385913	4.0706691	0.6382556	9.8184846	4.0386197	0.6615456	10.0354809	3.9831050	0.6355156	9.8833896	4.1230438	0.2544556	10.2478140	3.9613178	0.2424356	9.6451508	4.1510654	0.2485756	10.1966420	3.9255759	0.2297556	9.6914648	4.2027743	0.1893356	10.2960598	4.0408757	0.1900756	9.6816755	4.2590242	0.1901556	10.2572785	4.0386067	0.1996556	9.7536941	4.0636520	1.0347156	10.2397151	4.1439584	0.9584756	9.9750026	4.1095281	1.0830756	10.2387972	4.1093470	0.9805156	10.0201226	3.9330574	1.2201156	9.8637703	3.8897286	1.4416956	9.8066247	4.2900180	0.1682656	10.2282691	4.0428712	0.1879656	9.7985931	3.9043847	0.1987556	9.6165170	4.0769036	0.2139456	10.2076293	3.9587137	1.7782556	9.9185893	3.9430930	1.4843956	9.8901645	3.8011747	1.4749256	9.9790667	3.8618916	1.2289256	10.0413966	4.0378069	1.0997256	10.1820828	4.0850022	1.4938756	9.8012581	4.1212275	1.2257956	9.7796754	4.1150821	1.0280456	9.9366010	3.9793164	1.0413356	9.9381048	3.9126434	1.0484156	10.0070469	4.0308753	0.6336856	10.1168518	4.1333441	0.2398156	10.2152898	4.0459893	1.0342556	9.8691627	4.0390783	0.6008956	9.8387417	3.9351999	0.2338956	9.6659517	3.9010802	1.7858656	9.8993608	3.9527735	1.7886056	9.8577155	3.8409609	1.7113356	9.8742947	3.9506104	1.7169756	9.7886945	4.0701106	0.1839456	9.8054140	4.0840558	0.1864456	9.7261733	3.9043847	0.1987556	9.6165170	4.3066193	0.1512756	10.2324906	4.2615399	0.1663456	10.3008875	4.0779474	0.1977756	10.2094842
